<svg xmlns="http://www.w3.org/2000/svg" viewBox="0 0 40 40">
    <defs>
        <style>
            .prefix__cls-1 {
                fill: #fff
            }
        </style>
    </defs>
    <g id="prefix__Capa_2" data-name="Capa 2">
        <g id="prefix__Capa_1-2" data-name="Capa 1">
            <g id="prefix__Grupo_808" data-name="Grupo 808">
                <g id="prefix__calendar">
                    <path id="prefix__Trazado_822" data-name="Trazado 822" class="prefix__cls-1"
                        d="M6.25 25h4.17a1.25 1.25 0 001.24-1.25v-4.17a1.25 1.25 0 00-1.24-1.25H6.25A1.25 1.25 0 005 19.58v4.17A1.25 1.25 0 006.25 25z" />
                    <path id="prefix__Trazado_823" data-name="Trazado 823" class="prefix__cls-1"
                        d="M6.25 35h4.17a1.25 1.25 0 001.24-1.25v-4.17a1.25 1.25 0 00-1.24-1.25H6.25A1.25 1.25 0 005 29.58v4.16A1.25 1.25 0 006.25 35z" />
                    <path id="prefix__Trazado_824" data-name="Trazado 824" class="prefix__cls-1"
                        d="M17.91 25h4.17a1.25 1.25 0 001.25-1.25v-4.17a1.25 1.25 0 00-1.25-1.25h-4.17a1.26 1.26 0 00-1.25 1.25v4.17A1.26 1.26 0 0017.91 25z" />
                    <path id="prefix__Trazado_825" data-name="Trazado 825" class="prefix__cls-1"
                        d="M17.91 35h4.17a1.25 1.25 0 001.25-1.25v-4.17a1.25 1.25 0 00-1.25-1.25h-4.17a1.26 1.26 0 00-1.25 1.25v4.16A1.26 1.26 0 0017.91 35z" />
                    <path id="prefix__Trazado_826" data-name="Trazado 826" class="prefix__cls-1"
                        d="M29.58 25h4.16A1.25 1.25 0 0035 23.75v-4.17a1.25 1.25 0 00-1.25-1.25h-4.17a1.25 1.25 0 00-1.25 1.25v4.17A1.25 1.25 0 0029.58 25z" />
                    <path id="prefix__Trazado_827" data-name="Trazado 827" class="prefix__cls-1"
                        d="M35 5h-1.67V1.67A1.67 1.67 0 0031.66 0H30a1.67 1.67 0 00-1.67 1.67V5H11.66V1.67A1.67 1.67 0 0010 0H8.33a1.66 1.66 0 00-1.66 1.67V5H5a5 5 0 00-5 5v25a5 5 0 005 5h30a5 5 0 005-5V10a5 5 0 00-5-5zm1.66 30A1.66 1.66 0 0135 36.67H5A1.66 1.66 0 013.34 35V16.73h33.32z" />
                </g>
            </g>
        </g>
    </g>
</svg>