<svg xmlns="http://www.w3.org/2000/svg" width="100%" viewBox="0 0 18 18">
  <g id="Grupo_1178" transform="translate(0.77)">
    <path
      d="M122.9,18.3V28.621a.944.944,0,0,0,.3.7.984.984,0,0,0,1.4,0,.945.945,0,0,0,.3-.7V18.3c.3-.1,1.432-1.089,1.432-1.405V12.737a.473.473,0,0,0-.151-.349.506.506,0,0,0-.714,0,.473.473,0,0,0-.151.349v3.229a.472.472,0,0,1-.151.349.506.506,0,0,1-.714,0,.473.473,0,0,1-.151-.349V12.737a.473.473,0,0,0-.151-.349.506.506,0,0,0-.714,0,.473.473,0,0,0-.151.349v3.229a.472.472,0,0,1-.151.349.506.506,0,0,1-.714,0,.472.472,0,0,1-.151-.349V12.737a.473.473,0,0,0-.151-.349.506.506,0,0,0-.714,0,.474.474,0,0,0-.151.349V16.89C121.263,17.206,122.6,18.192,122.9,18.3Z"
      transform="translate(-119.263 -11.823)" />
    <path
      d="M318.94,8.95h1.153v8.056a.946.946,0,0,0,.3.7.983.983,0,0,0,1.4,0,.946.946,0,0,0,.3-.7V.5a.474.474,0,0,0-.151-.35A.494.494,0,0,0,321.59,0h-.365a2.472,2.472,0,0,0-1.793.73,2.37,2.37,0,0,0-.746,1.756V8.7a.236.236,0,0,0,.075.175A.246.246,0,0,0,318.94,8.95Z"
      transform="translate(-309.2 0)" />
    <rect width="18" height="18" transform="translate(-0.77 0.093)" fill="none" />
  </g>
</svg>