<svg xmlns="http://www.w3.org/2000/svg" viewBox="0 0 37.9 40">
    <defs>
        <style>
            .prefix__cls-1 {
                fill: #fff
            }
        </style>
    </defs>
    <g id="prefix__Capa_2" data-name="Capa 2">
        <g id="prefix__Capa_1-2" data-name="Capa 1">
            <g id="prefix__Grupo_804" data-name="Grupo 804">
                <path id="prefix__Trazado_791" data-name="Trazado 791" class="prefix__cls-1"
                    d="M18.8 8.32a4.16 4.16 0 10-4.16-4.16 4.16 4.16 0 004.16 4.16z" />
                <path id="prefix__Trazado_792" data-name="Trazado 792" class="prefix__cls-1"
                    d="M30.61 10a4.16 4.16 0 10-4.15-4.15A4.15 4.15 0 0030.61 10z" />
                <path id="prefix__Trazado_793" data-name="Trazado 793" class="prefix__cls-1"
                    d="M7.28 10a4.16 4.16 0 10-4.16-4.17A4.15 4.15 0 007.28 10z" />
                <path id="prefix__Trazado_794" data-name="Trazado 794" class="prefix__cls-1"
                    d="M37.87 23.85l-1.06-8.54a4.18 4.18 0 00-4.14-3.64h-4.11a4.15 4.15 0 00-1.39.24.83.83 0 00-.52 1 7.63 7.63 0 01.2.95L28 23.54a4.48 4.48 0 01-1.1 3.5 3.69 3.69 0 01-.7.61.83.83 0 00-.35.74l.66 9.17a.83.83 0 00.83.78H34a.83.83 0 00.83-.78l.78-10.9A2.5 2.5 0 0037.9 24v-.15z" />
                <path id="prefix__Trazado_795" data-name="Trazado 795" class="prefix__cls-1"
                    d="M11.69 27.8a4.28 4.28 0 01-.93-.78 4.47 4.47 0 01-1.1-3.5l1.11-9.68a6.16 6.16 0 01.21-1 .83.83 0 00-.57-1 4.07 4.07 0 00-1-.14H5.22a4.14 4.14 0 00-4.13 3.64L0 23.82a2.5 2.5 0 002.17 2.79h.15l.78 10.9a.82.82 0 00.9.79h6.66a.84.84 0 00.84-.78l.64-9a.83.83 0 00-.45-.72z" />
                <path id="prefix__Trazado_796" data-name="Trazado 796" class="prefix__cls-1"
                    d="M26.29 23.72L25.18 14a4.41 4.41 0 00-4.25-4h-4.25a4.4 4.4 0 00-4.25 4l-1.11 9.68a2.86 2.86 0 00.68 2.24 2.45 2.45 0 001.71.84l.92 12.46a.83.83 0 00.83.78h6.67a.83.83 0 00.83-.78l.92-12.46a2.49 2.49 0 001.72-.84 2.84 2.84 0 00.69-2.2z" />
            </g>
        </g>
    </g>
</svg>