<svg xmlns="http://www.w3.org/2000/svg" viewBox="0 0 40 36.92"><defs><style>.cls-1{fill:#333;}</style></defs><g id="Capa_2" data-name="Capa 2"><g id="Capa_1-2" data-name="Capa 1"><path id="Rectángulo_832" data-name="Rectángulo 832" class="cls-1" d="M3.08,0H36.92A3.08,3.08,0,0,1,40,3.08h0a3.07,3.07,0,0,1-3.08,3.07H3.08A3.07,3.07,0,0,1,0,3.08H0A3.08,3.08,0,0,1,3.08,0Z"/><path id="Rectángulo_833" data-name="Rectángulo 833" class="cls-1" d="M3.08,15.38H36.92A3.08,3.08,0,0,1,40,18.46h0a3.08,3.08,0,0,1-3.08,3.08H3.08A3.08,3.08,0,0,1,0,18.46H0A3.08,3.08,0,0,1,3.08,15.38Z"/><path id="Rectángulo_834" data-name="Rectángulo 834" class="cls-1" d="M3.08,30.77H36.92A3.08,3.08,0,0,1,40,33.85h0a3.07,3.07,0,0,1-3.08,3.07H3.08A3.07,3.07,0,0,1,0,33.85H0A3.08,3.08,0,0,1,3.08,30.77Z"/></g></g></svg>