<svg xmlns="http://www.w3.org/2000/svg" viewBox="0 0 40 40">
    <defs>
        <style>
            .prefix__cls-1 {
                fill: #333
            }
        </style>
    </defs>
    <g id="prefix__Capa_2" data-name="Capa 2">
        <g id="prefix__Capa_1-2" data-name="Capa 1">
            <g id="prefix__Grupo_801" data-name="Grupo 801">
                <g id="prefix___003-dashboard" data-name="003-dashboard">
                    <path id="prefix__Trazado_775" data-name="Trazado 775" class="prefix__cls-1"
                        d="M14.29 0H2.86A2.86 2.86 0 000 2.86v8.57a2.86 2.86 0 002.86 2.86h11.43a2.86 2.86 0 002.85-2.86V2.86A2.86 2.86 0 0014.29 0z" />
                    <path id="prefix__Trazado_776" data-name="Trazado 776" class="prefix__cls-1"
                        d="M14.29 17.14H2.86A2.86 2.86 0 000 20v17.14A2.86 2.86 0 002.86 40h11.43a2.86 2.86 0 002.85-2.86V20a2.86 2.86 0 00-2.85-2.86z" />
                    <path id="prefix__Trazado_777" data-name="Trazado 777" class="prefix__cls-1"
                        d="M37.14 25.71H25.71a2.86 2.86 0 00-2.85 2.86v8.57A2.86 2.86 0 0025.71 40h11.43A2.86 2.86 0 0040 37.14v-8.57a2.86 2.86 0 00-2.86-2.86z" />
                    <path id="prefix__Trazado_778" data-name="Trazado 778" class="prefix__cls-1"
                        d="M37.14 0H25.71a2.86 2.86 0 00-2.85 2.86V20a2.79 2.79 0 002.72 2.86h11.56A2.86 2.86 0 0040 20V2.86A2.86 2.86 0 0037.14 0z" />
                </g>
            </g>
        </g>
    </g>
</svg>