<svg xmlns="http://www.w3.org/2000/svg" viewBox="0 0 30.45 40"><defs><style>.cls-1{fill:#333;}</style></defs><g id="Capa_2" data-name="Capa 2"><g id="Capa_1-2" data-name="Capa 1"><g id="signo-de-discapacitados"><path id="Trazado_945" data-name="Trazado 945" class="cls-1" d="M14.13,7a3.48,3.48,0,1,0-3.47-3.48A3.47,3.47,0,0,0,14.13,7Z"/><path id="Trazado_946" data-name="Trazado 946" class="cls-1" d="M30,32.52,23.86,22.06a2.77,2.77,0,0,0-2.38-1.36h-4.6V19.42h4.94a2.07,2.07,0,0,0,0-4.14H16.88v-4a2.77,2.77,0,0,0-5.53,0V23.44a2.77,2.77,0,0,0,2.77,2.77h5.77l5.32,9.09a2.76,2.76,0,1,0,4.94-2.48,1.92,1.92,0,0,0-.18-.31Z"/><path id="Trazado_947" data-name="Trazado 947" class="cls-1" d="M20.14,31a2.07,2.07,0,0,0-2.76,1,7,7,0,1,1-8.57-9.6,2.07,2.07,0,0,0-1.36-3.91h0a11.1,11.1,0,1,0,13.66,15.3A2.07,2.07,0,0,0,20.14,31Z"/></g></g></g></svg>