<svg xmlns="http://www.w3.org/2000/svg" viewBox="0 0 40 40.01"><defs><style>.cls-1{fill:#333;}</style></defs><g id="Capa_2" data-name="Capa 2"><g id="Capa_1-2" data-name="Capa 1"><path id="star" class="cls-1" d="M9.28,25.59l-2.11,13a1.25,1.25,0,0,0,1,1.43,1.19,1.19,0,0,0,.8-.14l11-6.08,11,6.08a1.25,1.25,0,0,0,1.84-1.29l-2.11-13,8.93-9.18a1.24,1.24,0,0,0,0-1.77,1.23,1.23,0,0,0-.68-.34L26.65,12.42,21.14.66A1.31,1.31,0,0,0,19.37.17a1.22,1.22,0,0,0-.49.49L13.35,12.42,1.06,14.3a1.26,1.26,0,0,0-1,1.43,1.18,1.18,0,0,0,.35.68Z"/></g></g></svg>