<svg xmlns="http://www.w3.org/2000/svg" viewBox="0 0 40 29.98"><defs><style>.cls-1{fill:#333;}</style></defs><g id="Capa_2" data-name="Capa 2"><g id="Capa_1-2" data-name="Capa 1"><g id="Grupo_1354" data-name="Grupo 1354"><path id="Trazado_955" data-name="Trazado 955" class="cls-1" d="M39.9,15.42A19.58,19.58,0,0,0,24.68,5.14C21.47,1.07,11.38.05,10.94,0A.85.85,0,0,0,10,.75a.82.82,0,0,0,.06.38,69.09,69.09,0,0,1,2.27,6.68,29,29,0,0,0-4.47,2.47,8.79,8.79,0,0,0-7-3.62A.83.83,0,0,0,0,7.49H0a11,11,0,0,0,2.81,8.33A11,11,0,0,0,0,24.15.83.83,0,0,0,.87,25a8.8,8.8,0,0,0,7-3.63,32.83,32.83,0,0,0,6.34,3.28,8.8,8.8,0,0,0-.86,4.52.83.83,0,0,0,.82.83c.25,0,5.91-.05,8.73-3.36a19.5,19.5,0,0,0,17-10.39A.89.89,0,0,0,39.9,15.42ZM23.59,9.62a12.12,12.12,0,0,0-1.52,6.21,13.53,13.53,0,0,0,.81,4.71.83.83,0,0,1-.52,1.05.82.82,0,0,1-1-.47,14.89,14.89,0,0,1-.93-5.29,13.57,13.57,0,0,1,1.81-7.12.83.83,0,0,1,1.38.92Zm2.76,13.55a.82.82,0,0,1-1.15-.23,14.93,14.93,0,0,1,0-14.24.82.82,0,0,1,1.16-.2.83.83,0,0,1,.23,1.12,12.13,12.13,0,0,0-1.53,6.21A12.14,12.14,0,0,0,26.58,22,.81.81,0,0,1,26.35,23.17ZM30.06,15a1.67,1.67,0,1,1,1.66-1.66h0A1.66,1.66,0,0,1,30.06,15Z"/></g></g></g></svg>