<svg xmlns="http://www.w3.org/2000/svg" viewBox="0 0 29.95 39.93"><defs><style>.cls-1{fill:#333;}</style></defs><g id="Capa_2" data-name="Capa 2"><g id="Capa_1-2" data-name="Capa 1"><path id="password" class="cls-1" d="M26.2,15H25V10A10,10,0,0,0,5,10H5v5H3.74A3.74,3.74,0,0,0,0,18.72V36.19a3.75,3.75,0,0,0,3.74,3.74H26.2A3.75,3.75,0,0,0,30,36.19V18.72A3.75,3.75,0,0,0,26.2,15ZM8.32,10a6.66,6.66,0,0,1,13.31,0v5H8.32Zm8.32,17.85v3.79a1.67,1.67,0,0,1-3.33,0V27.83a3.33,3.33,0,1,1,4.54-1.22A3.37,3.37,0,0,1,16.64,27.83Z"/></g></g></svg>