<svg xmlns="http://www.w3.org/2000/svg" viewBox="0 0 40 40"><defs><style>.cls-1{fill:#333;}</style></defs><g id="Capa_2" data-name="Capa 2"><g id="Capa_1-2" data-name="Capa 1"><g id="Grupo_1353" data-name="Grupo 1353"><g id="Grupo_1352" data-name="Grupo 1352"><path id="Trazado_953" data-name="Trazado 953" class="cls-1" d="M12.73,5.45C5.37,5.45,0,19.63,0,27A12.89,12.89,0,0,0,12.73,40,12.89,12.89,0,0,0,25.46,27C25.45,19.63,20.08,5.45,12.73,5.45Zm0,29.1A7.28,7.28,0,1,1,20,27.27,7.27,7.27,0,0,1,12.73,34.55Z"/><path id="Trazado_954" data-name="Trazado 954" class="cls-1" d="M27.27,0c-2.7,0-5.4,2.07-7.78,6a.89.89,0,0,0,.12,1.1A33.24,33.24,0,0,1,27.27,27a14.73,14.73,0,0,1-1.37,6.23,1,1,0,0,0,.14.86,1.07,1.07,0,0,0,.81.44l.42,0A12.74,12.74,0,0,0,40,21.82C40,15.31,34.63,0,27.27,0Z"/></g></g></g></g></svg>