<svg xmlns="http://www.w3.org/2000/svg" viewBox="0 0 40 32.18"><defs><style>.cls-1{fill:#333;}</style></defs><g id="Capa_2" data-name="Capa 2"><g id="Capa_1-2" data-name="Capa 1"><g id="Grupo_1202" data-name="Grupo 1202"><path id="Trazado_921" data-name="Trazado 921" class="cls-1" d="M11.88,20.31a7.86,7.86,0,0,1-5.25-2A8,8,0,0,0,5.08,23v6.8a2.35,2.35,0,0,0,2.35,2.34h8.9a2.35,2.35,0,0,0,2.35-2.34V23a8.11,8.11,0,0,0-1.55-4.73A7.83,7.83,0,0,1,11.88,20.31Z"/><path id="Trazado_922" data-name="Trazado 922" class="cls-1" d="M36.49,0h-33A3.53,3.53,0,0,0,0,3.52V21.33a3.53,3.53,0,0,0,2.73,3.43V23.05A10.41,10.41,0,0,1,5.07,16.5l0,0a7.88,7.88,0,1,1,13.55,0l0,0A10.41,10.41,0,0,1,21,23.05v1.8H36.49A3.52,3.52,0,0,0,40,21.33V3.52A3.52,3.52,0,0,0,36.49,0Zm-14,18.59a1.17,1.17,0,1,1,1.17-1.17,1.17,1.17,0,0,1-1.17,1.17Zm0-5a1.17,1.17,0,1,1,1.17-1.17,1.17,1.17,0,0,1-1.17,1.17Zm0-5a1.17,1.17,0,1,1,1.17-1.17A1.17,1.17,0,0,1,22.5,8.59Zm11.25,10H27.5a1.17,1.17,0,0,1,0-2.34h6.25a1.17,1.17,0,0,1,0,2.34Zm0-5H27.5a1.17,1.17,0,0,1,0-2.34h6.25a1.17,1.17,0,1,1,0,2.34Zm0-5H27.5a1.17,1.17,0,0,1,0-2.34h6.25a1.17,1.17,0,1,1,0,2.34Z"/><circle id="Elipse_142" data-name="Elipse 142" class="cls-1" cx="11.84" cy="12.39" r="5.63"/></g></g></g></svg>