<svg xmlns="http://www.w3.org/2000/svg" viewBox="0 0 22.05 39.97"><defs><style>.cls-1{fill:#333;}</style></defs><g id="Capa_2" data-name="Capa 2"><g id="Capa_1-2" data-name="Capa 1"><g id="restaurant-interface-symbol-of-fork-and-knife-couple"><g id="Grupo_1178" data-name="Grupo 1178"><path id="Trazado_902" data-name="Trazado 902" class="cls-1" d="M3.57,14.37v23a2.19,2.19,0,0,0,4.37,0v-23c.65-.23,3.11-2.42,3.11-3.12V2A1.11,1.11,0,0,0,8.84,2V9.19a1.11,1.11,0,1,1-2.21,0V2A1.11,1.11,0,0,0,4.42,2V9.19a1.11,1.11,0,1,1-2.21,0V2A1.11,1.11,0,0,0,0,2v9.24C0,12,2.92,14.14,3.57,14.37Z"/><path id="Trazado_905" data-name="Trazado 905" class="cls-1" d="M15.18,19.89h2.51v17.9a2.18,2.18,0,0,0,4.36,0V1.11a1,1,0,0,0-.32-.78A1.11,1.11,0,0,0,21,0h-.8a5.34,5.34,0,0,0-3.9,1.62,5.36,5.36,0,0,0-1.62,3.91V19.34A.56.56,0,0,0,15.18,19.89Z"/></g></g></g></g></svg>