<svg xmlns="http://www.w3.org/2000/svg" viewBox="0 0 39.99 40">
    <defs>
        <style>
            .prefix__prefix__cls-1 {
                fill: #fff
            }
        </style>
    </defs>
    <g id="prefix__prefix__Capa_2" data-name="Capa 2">
        <g id="prefix__prefix__Capa_1-2" data-name="Capa 1">
            <path id="prefix__prefix__Trazado_808" data-name="Trazado 808" class="prefix__prefix__cls-1"
                d="M20 5.76a1.25 1.25 0 01-1.25-1.25V1.25a1.25 1.25 0 012.5 0v3.27A1.26 1.26 0 0120 5.76z" />
            <path id="prefix__prefix__Trazado_809" data-name="Trazado 809" class="prefix__prefix__cls-1"
                d="M30.94 10.29a1.24 1.24 0 01-.88-2.13l2.31-2.31a1.25 1.25 0 111.76 1.77l-2.3 2.31a1.29 1.29 0 01-.89.36z" />
            <path id="prefix__prefix__Trazado_810" data-name="Trazado 810" class="prefix__prefix__cls-1"
                d="M38.74 21.25h-3.27a1.25 1.25 0 010-2.5h3.27a1.25 1.25 0 010 2.5z" />
            <path id="prefix__prefix__Trazado_811" data-name="Trazado 811" class="prefix__prefix__cls-1"
                d="M33.25 34.5a1.22 1.22 0 01-.88-.37l-2.31-2.3a1.25 1.25 0 011.77-1.77l2.3 2.3a1.25 1.25 0 010 1.77 1.22 1.22 0 01-.88.37z" />
            <path id="prefix__prefix__Trazado_812" data-name="Trazado 812" class="prefix__prefix__cls-1"
                d="M6.74 34.5a1.25 1.25 0 01-1.25-1.25 1.22 1.22 0 01.37-.88l2.3-2.31a1.25 1.25 0 011.77 1.77l-2.31 2.3a1.22 1.22 0 01-.88.37z" />
            <path id="prefix__prefix__Trazado_813" data-name="Trazado 813" class="prefix__prefix__cls-1"
                d="M4.51 21.25H1.25a1.25 1.25 0 010-2.5h3.27a1.25 1.25 0 010 2.5z" />
            <path id="prefix__prefix__Trazado_814" data-name="Trazado 814" class="prefix__prefix__cls-1"
                d="M9.05 10.29a1.27 1.27 0 01-.89-.36l-2.3-2.31a1.24 1.24 0 011.76-1.76l2.31 2.3a1.26 1.26 0 01-.88 2.14z" />
            <path id="prefix__prefix__Trazado_815" data-name="Trazado 815" class="prefix__prefix__cls-1"
                d="M25 35v2.09A2.92 2.92 0 0122.08 40h-4.17A3 3 0 0115 36.84a2.29 2.29 0 010-.25V35z" />
            <path id="prefix__prefix__Trazado_816" data-name="Trazado 816" class="prefix__prefix__cls-1"
                d="M27.34 10.93A11.67 11.67 0 0013 29.31a5 5 0 011.91 3.19h10.18a5.5 5.5 0 012.13-3.33 11.67 11.67 0 001.94-16.39 11.25 11.25 0 00-1.81-1.84zm-1.1 9.9A1.26 1.26 0 0125 19.58 4.56 4.56 0 0020.42 15a1.25 1.25 0 110-2.5 7.09 7.09 0 017.07 7.07 1.25 1.25 0 01-1.25 1.25z" />
            <path id="prefix__prefix__Trazado_817" data-name="Trazado 817" class="prefix__prefix__cls-1"
                d="M14.88 32.49H15h-.12z" />
            <path id="prefix__prefix__Trazado_818" data-name="Trazado 818" class="prefix__prefix__cls-1"
                d="M25.08 32.49h-.09z" />
        </g>
    </g>
</svg>